# Made in Blockbench 4.12.6
mtllib mask_buggi.mtl

o mask_buggi
v 0.02174649986938311 1.20005 -0.3520743666109446
v 0.002612328251128629 1.20005 -0.39826834323650895
v 0.02174649986938311 0.41250000000000003 -0.3520743666109446
v 0.002612328251128629 0.41250000000000003 -0.39826834323650895
v -0.41313346137895035 1.20005 -0.2260607986722186
v -0.39399928976069587 1.20005 -0.17986682204665427
v -0.41313346137895035 0.41250000000000003 -0.2260607986722186
v -0.39399928976069587 0.41250000000000003 -0.17986682204665427
vt 0 1
vt 0.109375 1
vt 0.109375 0.8046875
vt 0 0.8046875
vt 0.34375 0.875
vt 0.359375 0.875
vt 0.359375 0.6796875
vt 0.34375 0.6796875
vt 0.109375 1
vt 0.21875 1
vt 0.21875 0.8046875
vt 0.109375 0.8046875
vt 0.34375 0.671875
vt 0.359375 0.671875
vt 0.359375 0.4765625
vt 0.34375 0.4765625
vt 0.53125 0.828125
vt 0.421875 0.828125
vt 0.421875 0.84375
vt 0.53125 0.84375
vt 0.53125 0.828125
vt 0.421875 0.828125
vt 0.421875 0.8125
vt 0.53125 0.8125
vn -0.3826834323650897 0 -0.9238795325112867
vn 0.9238795325112867 0 -0.3826834323650897
vn 0.3826834323650897 0 0.9238795325112867
vn -0.9238795325112867 0 0.3826834323650897
vn 0 1 0
vn 0 -1 0
usemtl m_3bb4da57-51df-377e-f44f-48bac70517ba
f 4/4/1 7/3/1 5/2/1 2/1/1
f 3/8/2 4/7/2 2/6/2 1/5/2
f 8/12/3 3/11/3 1/10/3 6/9/3
f 7/16/4 8/15/4 6/14/4 5/13/4
f 6/20/5 1/19/5 2/18/5 5/17/5
f 7/24/6 4/23/6 3/22/6 8/21/6
o mask_buggi
v 0.3992236647606958 1.19995 -0.17986682204665427
v 0.4183578363789503 1.19995 -0.2260607986722186
v 0.3992236647606958 0.41375000000000006 -0.17986682204665427
v 0.4183578363789503 0.41375000000000006 -0.2260607986722186
v 0.002612046748871319 1.19995 -0.39826834323650895
v -0.016522124869383162 1.19995 -0.3520743666109446
v 0.002612046748871319 0.41375000000000006 -0.39826834323650895
v -0.016522124869383162 0.41375000000000006 -0.3520743666109446
vt 0 0.796875
vt 0.109375 0.796875
vt 0.109375 0.6015625
vt 0 0.6015625
vt 0.359375 0.875
vt 0.375 0.875
vt 0.375 0.6796875
vt 0.359375 0.6796875
vt 0.109375 0.796875
vt 0.21875 0.796875
vt 0.21875 0.6015625
vt 0.109375 0.6015625
vt 0.359375 0.671875
vt 0.375 0.671875
vt 0.375 0.4765625
vt 0.359375 0.4765625
vt 0.53125 0.796875
vt 0.421875 0.796875
vt 0.421875 0.8125
vt 0.53125 0.8125
vt 0.53125 0.796875
vt 0.421875 0.796875
vt 0.421875 0.78125
vt 0.53125 0.78125
vn 0.3826834323650897 0 -0.9238795325112867
vn 0.9238795325112867 0 0.3826834323650897
vn -0.3826834323650897 0 0.9238795325112867
vn -0.9238795325112867 0 -0.3826834323650897
vn 0 1 0
vn 0 -1 0
usemtl m_3bb4da57-51df-377e-f44f-48bac70517ba
f 12/28/7 15/27/7 13/26/7 10/25/7
f 11/32/8 12/31/8 10/30/8 9/29/8
f 16/36/9 11/35/9 9/34/9 14/33/9
f 15/40/10 16/39/10 14/38/10 13/37/10
f 14/44/11 9/43/11 10/42/11 13/41/11
f 15/48/12 12/47/12 11/46/12 16/45/12
o mask_buggi
v -0.32558553622989794 0.6421524076705017 -0.09375
v -0.32558553622989794 0.6421524076705017 -0.34375
v -0.2346982210431891 0.4227310186990711 -0.09375
v -0.2346982210431891 0.4227310186990711 -0.34375
v -0.4988129485757642 0.5703992641020474 -0.34375
v -0.4988129485757642 0.5703992641020474 -0.09375
v -0.40792563338905535 0.3509778751306168 -0.34375
v -0.40792563338905535 0.3509778751306168 -0.09375
vt 0.453125 1
vt 0.5 1
vt 0.5 0.940625
vt 0.453125 0.940625
vt 0.5 1
vt 0.5625 1
vt 0.5625 0.940625
vt 0.5 0.940625
vt 0.609375 1
vt 0.65625 1
vt 0.65625 0.940625
vt 0.609375 0.940625
vt 0.65625 1
vt 0.71875 1
vt 0.71875 0.940625
vt 0.65625 0.940625
vt 0.609375 0.9375
vt 0.5625 0.9375
vt 0.5625 1
vt 0.609375 1
vt 0.765625 1
vt 0.71875 1
vt 0.71875 0.9375
vt 0.765625 0.9375
vn 0 0 -1
vn 0.9238795325112867 0.3826834323650897 0
vn 0 0 1
vn -0.9238795325112867 -0.3826834323650897 0
vn -0.3826834323650897 0.9238795325112867 0
vn 0.3826834323650897 -0.9238795325112867 0
usemtl m_3bb4da57-51df-377e-f44f-48bac70517ba
f 20/52/13 23/51/13 21/50/13 18/49/13
f 19/56/14 20/55/14 18/54/14 17/53/14
f 24/60/15 19/59/15 17/58/15 22/57/15
f 23/64/16 24/63/16 22/62/16 21/61/16
f 22/68/17 17/67/17 18/66/17 21/65/17
f 23/72/18 20/71/18 19/70/18 24/69/18
o mask_buggi
v 0.49881294857576414 0.5703992641020474 -0.09375
v 0.49881294857576414 0.5703992641020474 -0.34375
v 0.4079256333890553 0.35097787513061685 -0.09375
v 0.4079256333890553 0.35097787513061685 -0.34375
v 0.32558553622989783 0.6421524076705017 -0.34375
v 0.32558553622989783 0.6421524076705017 -0.09375
v 0.23469822104318905 0.42273101869907115 -0.34375
v 0.23469822104318905 0.42273101869907115 -0.09375
vt 0.5 1
vt 0.453125 1
vt 0.453125 0.940625
vt 0.5 0.940625
vt 0.71875 1
vt 0.65625 1
vt 0.65625 0.940625
vt 0.71875 0.940625
vt 0.65625 1
vt 0.609375 1
vt 0.609375 0.940625
vt 0.65625 0.940625
vt 0.5625 1
vt 0.5 1
vt 0.5 0.940625
vt 0.5625 0.940625
vt 0.5625 0.9375
vt 0.609375 0.9375
vt 0.609375 1
vt 0.5625 1
vt 0.71875 1
vt 0.765625 1
vt 0.765625 0.9375
vt 0.71875 0.9375
vn 0 0 -1
vn 0.9238795325112867 -0.3826834323650897 0
vn 0 0 1
vn -0.9238795325112867 0.3826834323650897 0
vn 0.3826834323650897 0.9238795325112867 0
vn -0.3826834323650897 -0.9238795325112867 0
usemtl m_3bb4da57-51df-377e-f44f-48bac70517ba
f 28/76/19 31/75/19 29/74/19 26/73/19
f 27/80/20 28/79/20 26/78/20 25/77/20
f 32/84/21 27/83/21 25/82/21 30/81/21
f 31/88/22 32/87/22 30/86/22 29/85/22
f 30/92/23 25/91/23 26/90/23 29/89/23
f 31/96/24 28/95/24 27/94/24 32/93/24
o mask_buggi
v 0.5265366864730178 1.3097759065022572 -0.09999999999999998
v 0.5265366864730178 1.3097759065022572 -0.25
v 0.41173165676349094 1.0326120467488713 -0.09999999999999998
v 0.41173165676349094 1.0326120467488713 -0.25
v 0.38795475659632483 1.3671784213570206 -0.25
v 0.38795475659632483 1.3671784213570206 -0.09999999999999998
v 0.273149726886798 1.0900145616036347 -0.25
v 0.273149726886798 1.0900145616036347 -0.09999999999999998
vt 0.375 0.875
vt 0.4140625 0.875
vt 0.4140625 0.796875
vt 0.375 0.796875
vt 0.375 0.796875
vt 0.4140625 0.796875
vt 0.4140625 0.71875
vt 0.375 0.71875
vt 0.21875 0.625
vt 0.2578125 0.625
vt 0.2578125 0.546875
vt 0.21875 0.546875
vt 0.265625 0.625
vt 0.3046875 0.625
vt 0.3046875 0.546875
vt 0.265625 0.546875
vt 0.4609375 0.7421875
vt 0.421875 0.7421875
vt 0.421875 0.78125
vt 0.4609375 0.78125
vt 0.4609375 0.734375
vt 0.421875 0.734375
vt 0.421875 0.6953125
vt 0.4609375 0.6953125
vn 0 0 -1
vn 0.9238795325112867 -0.3826834323650897 0
vn 0 0 1
vn -0.9238795325112867 0.3826834323650897 0
vn 0.3826834323650897 0.9238795325112867 0
vn -0.3826834323650897 -0.9238795325112867 0
usemtl m_3bb4da57-51df-377e-f44f-48bac70517ba
f 36/100/25 39/99/25 37/98/25 34/97/25
f 35/104/26 36/103/26 34/102/26 33/101/26
f 40/108/27 35/107/27 33/106/27 38/105/27
f 39/112/28 40/111/28 38/110/28 37/109/28
f 38/116/29 33/115/29 34/114/29 37/113/29
f 39/120/30 36/119/30 35/118/30 40/117/30
o mask_buggi
v -0.38333535893376847 1.369091838518846 -0.09499999999999997
v -0.38333535893376847 1.369091838518846 -0.255
v -0.2685303292242416 1.09192797876546 -0.09499999999999997
v -0.2685303292242416 1.09192797876546 -0.255
v -0.5311560841355742 1.3078624893404316 -0.255
v -0.5311560841355742 1.3078624893404316 -0.09499999999999997
v -0.4163510544260475 1.0306986295870457 -0.255
v -0.4163510544260475 1.0306986295870457 -0.09499999999999997
vt 0.375 0.71875
vt 0.4140625 0.71875
vt 0.4140625 0.640625
vt 0.375 0.640625
vt 0.375 0.640625
vt 0.4140625 0.640625
vt 0.4140625 0.5625
vt 0.375 0.5625
vt 0 0.59375
vt 0.0390625 0.59375
vt 0.0390625 0.515625
vt 0 0.515625
vt 0.40625 1
vt 0.4453125 1
vt 0.4453125 0.921875
vt 0.40625 0.921875
vt 0.4609375 0.6484375
vt 0.421875 0.6484375
vt 0.421875 0.6875
vt 0.4609375 0.6875
vt 0.4609375 0.640625
vt 0.421875 0.640625
vt 0.421875 0.6015625
vt 0.4609375 0.6015625
vn 0 0 -1
vn 0.9238795325112867 0.3826834323650897 0
vn 0 0 1
vn -0.9238795325112867 -0.3826834323650897 0
vn -0.3826834323650897 0.9238795325112867 0
vn 0.3826834323650897 -0.9238795325112867 0
usemtl m_3bb4da57-51df-377e-f44f-48bac70517ba
f 44/124/31 47/123/31 45/122/31 42/121/31
f 43/128/32 44/127/32 42/126/32 41/125/32
f 48/132/33 43/131/33 41/130/33 46/129/33
f 47/136/34 48/135/34 46/134/34 45/133/34
f 46/140/35 41/139/35 42/138/35 45/137/35
f 47/144/36 44/143/36 43/142/36 48/141/36
o mask_buggi
v -0.2731495086502891 1.5295371416474937 -0.09999999999999998
v -0.2731495086502891 1.5295371416474937 -0.25
v -0.3879545383598159 1.252373281894108 -0.09999999999999998
v -0.3879545383598159 1.252373281894108 -0.25
v -0.4117314385269821 1.5869396565022573 -0.25
v -0.4117314385269821 1.5869396565022573 -0.09999999999999998
v -0.5265364682365089 1.3097757967488715 -0.25
v -0.5265364682365089 1.3097757967488715 -0.09999999999999998
vt 0.046875 0.59375
vt 0.0859375 0.59375
vt 0.0859375 0.515625
vt 0.046875 0.515625
vt 0.09375 0.59375
vt 0.1328125 0.59375
vt 0.1328125 0.515625
vt 0.09375 0.515625
vt 0.140625 0.59375
vt 0.1796875 0.59375
vt 0.1796875 0.515625
vt 0.140625 0.515625
vt 0.421875 0.921875
vt 0.4609375 0.921875
vt 0.4609375 0.84375
vt 0.421875 0.84375
vt 0.4609375 0.5546875
vt 0.421875 0.5546875
vt 0.421875 0.59375
vt 0.4609375 0.59375
vt 0.4140625 0.5625
vt 0.375 0.5625
vt 0.375 0.5234375
vt 0.4140625 0.5234375
vn 0 0 -1
vn 0.9238795325112867 -0.3826834323650897 0
vn 0 0 1
vn -0.9238795325112867 0.3826834323650897 0
vn 0.3826834323650897 0.9238795325112867 0
vn -0.3826834323650897 -0.9238795325112867 0
usemtl m_3bb4da57-51df-377e-f44f-48bac70517ba
f 52/148/37 55/147/37 53/146/37 50/145/37
f 51/152/38 52/151/38 50/150/38 49/149/38
f 56/156/39 51/155/39 49/154/39 54/153/39
f 55/160/40 56/159/40 54/158/40 53/157/40
f 54/164/41 49/163/41 50/162/41 53/161/41
f 55/168/42 52/167/42 51/166/42 56/165/42